<?xml version="1.0" encoding="utf-8"?>
<!-- Generator: Adobe Illustrator 17.0.0, SVG Export Plug-In . SVG Version: 6.00 Build 0)  -->
<!DOCTYPE svg PUBLIC "-//W3C//DTD SVG 1.1//EN" "http://www.w3.org/Graphics/SVG/1.1/DTD/svg11.dtd">
<svg version="1.1" xmlns="http://www.w3.org/2000/svg" xmlns:xlink="http://www.w3.org/1999/xlink" x="0px" y="0px"
	 width="77.193px" height="94.216px" viewBox="0 0 77.193 94.216" enable-background="new 0 0 77.193 94.216" xml:space="preserve">
<g id="Handy">
	<path fill-rule="evenodd" clip-rule="evenodd" fill="#EE761B" d="M64.144,9.74c1.008,0.262-27.335-5.918-40.56-8.64
		c-2.111-0.435-3.96,0.54-4.56,3.36c-0.667,3.132-4.8,23.04-4.8,23.04h49.68c0,0,2.76-12.72,2.88-13.44
		C67.024,12.62,66.3,10.3,64.144,9.74z"/>
</g>
<g id="Display">
	<g>
		<path fill-rule="evenodd" clip-rule="evenodd" fill="#FEDFB4" d="M20.464,26.5l3.12-15.84l36.24,6.96l-1.68,9.84l-36.72-0.48
			L20.464,26.5z"/>
	</g>
</g>
<g id="pocket_x5F_right">
	<g>
		<path fill-rule="evenodd" clip-rule="evenodd" fill="#028B96" d="M76.522,26.267c0,0-2.129,33.773-4.29,49.898
			c-0.427,3.184-0.571,3.35-2.383,4.318c-1.073,1.199-23.238,11.395-28.839,12.474c-0.359,0.167-0.558,0.313-2.625,0.24
			c0.091,0.261,0.091-66.87,0-66.93C38.376,26.208,77.594,26.387,76.522,26.267z"/>
	</g>
</g>
<g id="pocket_x5F_left">
	<g>
		<path fill-rule="evenodd" clip-rule="evenodd" fill="#14A5B8" d="M0.726,26.267c0,0,2.129,33.773,4.29,49.898
			c0.427,3.184,0.571,3.35,2.383,4.318c1.073,1.199,23.238,11.395,28.84,12.474c0.359,0.167,0.558,0.313,2.625,0.24
			c-0.091,0.261-0.091-66.87,0-66.93C38.872,26.208-0.346,26.387,0.726,26.267z"/>
	</g>
</g>
<g id="circle">
	<g>
		<path fill-rule="evenodd" clip-rule="evenodd" fill="#14A5B8" d="M38.504,40.9c8.947,0,16.2,7.253,16.2,16.2
			s-7.253,16.2-16.2,16.2s-16.2-7.253-16.2-16.2S29.557,40.9,38.504,40.9z"/>
	</g>
</g>
<g id="seam_x5F_withPlay">
	<g>
		<rect x="20.655" y="29.626" fill-rule="evenodd" clip-rule="evenodd" fill="#FFFFFF" width="14.152" height="2.879"/>
		<polygon fill-rule="evenodd" clip-rule="evenodd" fill="#FFFFFF" points="20.895,83.602 34.087,89.119 35.287,86 22.094,80.723 		
			"/>
		<polygon fill-rule="evenodd" clip-rule="evenodd" fill="#FFFFFF" points="8.662,45.698 5.304,45.938 6.504,60.092 9.622,59.852 		
			"/>
		<path fill-rule="evenodd" clip-rule="evenodd" fill="#FFFFFF" d="M11.541,74.485c-0.644-0.936-0.959-7.197-0.959-7.197H7.223
			c0,0,0.54,5.877,0.959,7.677c0.409,1.752,1.679,2.879,1.679,2.879l4.317,2.399l1.919-3.119
			C16.098,77.124,12.664,75.781,11.541,74.485z"/>
		<polygon fill-rule="evenodd" clip-rule="evenodd" fill="#FFFFFF" points="7.703,32.504 13.699,32.504 13.699,29.626 4.344,29.626 
			4.824,38.742 8.183,38.502 		"/>
		<polygon fill-rule="evenodd" clip-rule="evenodd" fill="#FFFFFF" points="41.264,86 42.451,89.359 55.707,83.602 54.283,80.723 		
			"/>
		<polygon fill-rule="evenodd" clip-rule="evenodd" fill="#FFFFFF" points="63.283,29.626 63.283,32.504 68.963,32.504 
			68.726,38.742 72.046,38.742 72.519,29.626 		"/>
		<path fill-rule="evenodd" clip-rule="evenodd" fill="#FFFFFF" d="M65.176,74.485c-1.204,0.959-4.503,2.639-4.503,2.639l1.66,3.119
			l4.503-2.639c0,0,1.333-0.886,1.657-2.639c0.542-1.765,1.187-7.437,1.187-7.437h-3.316C66.363,67.529,66.049,73.353,65.176,74.485
			z"/>
		<polygon fill-rule="evenodd" clip-rule="evenodd" fill="#FFFFFF" points="67.309,60.092 70.386,60.092 71.573,45.938 
			68.256,45.698 		"/>
		<rect x="42.221" y="29.626" fill-rule="evenodd" clip-rule="evenodd" fill="#FFFFFF" width="13.726" height="2.879"/>
		<path fill-rule="evenodd" clip-rule="evenodd" fill="#FFFFFF" d="M38.285,36.1c-11.466,0-20.76,9.295-20.76,20.76
			c0,11.466,9.294,20.76,20.76,20.76c11.465,0,20.76-9.295,20.76-20.76C59.045,45.394,49.75,36.1,38.285,36.1z M38.165,70.9
			c-7.688,0-13.92-6.232-13.92-13.92s6.232-13.92,13.92-13.92c7.688,0,13.92,6.232,13.92,13.92S45.852,70.9,38.165,70.9z"/>
		<polygon fill-rule="evenodd" clip-rule="evenodd" fill="#FFFFFF" points="34.804,66.1 45.844,56.98 34.804,47.86 		"/>
	</g>
</g>
</svg>
